<svg xmlns="http://www.w3.org/2000/svg" xmlns:xlink="http://www.w3.org/1999/xlink" viewBox="0 0 245 92.9"><defs><style>.cls-1{isolation:isolate;}.cls-2,.cls-6,.cls-7{fill:none;}.cls-2,.cls-7{stroke-miterlimit:10;}.cls-2{stroke-width:0.9px;stroke:url(#New_Gradient_Swatch_10);}.cls-3{fill:#ddd4a0;}.cls-4{mix-blend-mode:soft-light;}.cls-5{fill:#fff;fill-rule:evenodd;}.cls-7{stroke-width:2px;stroke:url(#New_Gradient_Swatch_10-2);}</style><linearGradient id="New_Gradient_Swatch_10" x1="2.52" y1="44.12" x2="242.6" y2="44.12" gradientUnits="userSpaceOnUse"><stop offset="0" stop-color="#5c3616"/><stop offset="0" stop-color="#6d4922"/><stop offset="0.01" stop-color="#8d6d38"/><stop offset="0.01" stop-color="#a98d4d"/><stop offset="0.02" stop-color="#c1a95e"/><stop offset="0.02" stop-color="#d5bf6c"/><stop offset="0.03" stop-color="#e4d076"/><stop offset="0.04" stop-color="#eedb7e"/><stop offset="0.05" stop-color="#f4e282"/><stop offset="0.08" stop-color="#f6e483"/><stop offset="0.17" stop-color="#9a6d33"/><stop offset="0.3" stop-color="#d59e46"/><stop offset="0.38" stop-color="#d59e46"/><stop offset="0.5" stop-color="#f9ec31"/><stop offset="0.58" stop-color="#d59e46"/><stop offset="0.7" stop-color="#d59e46"/><stop offset="0.88" stop-color="#9a6d33"/><stop offset="0.95" stop-color="#d59e46"/><stop offset="0.97" stop-color="#d39c45"/><stop offset="0.98" stop-color="#cc9743"/><stop offset="0.99" stop-color="#c18c3e"/><stop offset="0.99" stop-color="#b07e37"/><stop offset="0.99" stop-color="#9a6b2e"/><stop offset="1" stop-color="#7f5424"/><stop offset="1" stop-color="#603917"/><stop offset="1" stop-color="#5c3616"/></linearGradient><linearGradient id="New_Gradient_Swatch_10-2" x1="1.96" y1="44.12" x2="243.16" y2="44.12" xlink:href="#New_Gradient_Swatch_10"/></defs><title>Asset 1</title><g class="cls-1"><g id="Layer_2" data-name="Layer 2"><g id="Layer_1-2" data-name="Layer 1"><path class="cls-2" d="M3,85.24c0,1.1,2,2,4.45,2h230.3c2.45,0,4.45-.9,4.45-2V3c0-1.1-2-2-4.45-2H7.41C5,1,3,1.9,3,3Z"/><path class="cls-3" d="M2.52,84.74c0,1.1,2,2,4.45,2h230.3c2.45,0,4.45-.9,4.45-2V2.51c0-1.1-2-2-4.45-2H7c-2.45,0-4.45.9-4.45,2Z"/><g class="cls-4"><path class="cls-5" d="M122.38,4.32a3.17,3.17,0,0,0-3.2-3.13H6.36a3.17,3.17,0,0,0-3.2,3.13V20.07c2.36,2,6.89.51,6.92-2.2S8.6,14.69,8,14.56s-2.57-.23-2.39,1.52a1.46,1.46,0,0,0,2.11,1c.14,1.38-1.38,1.49-1.38,1.49-2.11.27-3.74-2.23-2-4.4a3.23,3.23,0,0,1,4-1l-.21-1.49c.21-2.74,2.6-3.48,4.47-2.94s3.08,2.19,1.9,3.89a1.85,1.85,0,0,1-2.84.21A1.46,1.46,0,0,0,13,10.7a1.71,1.71,0,0,0-2.94.47c-.41,1.12-.31,3.52,2.8,4.13a3.33,3.33,0,0,0,4-1.73c.34.78,3.35,2.5,5.19,1a2.43,2.43,0,0,0-.35-4.19c-1.28-.51-2.32.64-1.9,1.45a1.83,1.83,0,0,0,1.35.95c-1.25,1.15-2.46-.3-2.46-.3s-1.63-2.6,1-3.72c4.33-.81,5.09,2.43,5.09,2.43.28-2.43,2.91-2.74,2.91-2.74,3.43-.27,3.6,2,3.56,2.64a1.85,1.85,0,0,1-1.87,2c-1.59.1-1.45-.91-1.45-.91.73.3,1.11,0,1.17-.07a1.46,1.46,0,0,0-1.52-2.3c-1.59.17-2.8,2.77-.62,4.6a3.33,3.33,0,0,0,4.18.27c.17,3.89,1.59,4.33,1.77,4.33v0c.13,0,1.55-.44,1.76-4.33a3.28,3.28,0,0,0,4.16-.27c2.18-1.83,1-4.43-.66-4.6a1.46,1.46,0,0,0-1.49,2.3c.11.1.42.37,1.15.07,0,0,.2,1-1.39.91a1.86,1.86,0,0,1-1.87-2c-.07-.68.1-2.91,3.53-2.64,0,0,2.62.3,2.9,2.74,0,0,.73-3.24,5.09-2.43,2.63,1.12,1,3.72,1,3.72s-1.21,1.45-2.46.3a1.94,1.94,0,0,0,1.39-.95c.34-.81-.66-2-1.94-1.45a2.43,2.43,0,0,0-.35,4.19c1.87,1.52,4.88-.2,5.19-1,0,0,.94,2.33,4,1.73s3.22-3,2.77-4.13a1.68,1.68,0,0,0-2.91-.47,1.43,1.43,0,0,0,1.35,2.06s-1.66,1.49-2.87-.21,0-3.38,1.87-3.89,4.29.2,4.46,2.94l-.17,1.49a3.23,3.23,0,0,1,4,1c1.73,2.16.1,4.67-2,4.4,0,0-1.56-.1-1.45-1.49a1.53,1.53,0,0,0,2.18-1c.17-1.76-1.87-1.76-2.42-1.52s-2.19.54-2,3.31,4.74,4.19,7.09,2.1v0c2.39,2.1,7.07.64,7.16-2.1s-1.52-3.18-2.11-3.31-2.56-.23-2.42,1.52a1.53,1.53,0,0,0,2.18,1c.1,1.38-1.45,1.49-1.45,1.49-2.11.27-3.71-2.23-2-4.4a3.23,3.23,0,0,1,4-1l-.14-1.49C68,8.88,70.4,8.13,72.3,8.68s3,2.19,1.86,3.89-2.8.21-2.8.21a1.44,1.44,0,0,0,1.32-2.06,1.72,1.72,0,0,0-2.94.47c-.42,1.12-.28,3.52,2.73,4.13s4.08-1.73,4.08-1.73c.32.78,3.32,2.5,5.16,1a2.43,2.43,0,0,0-.31-4.19c-1.32-.51-2.32.64-1.93,1.45a1.87,1.87,0,0,0,1.38.95c-1.25,1.15-2.5-.3-2.5-.3s-1.62-2.6,1-3.72c4.33-.81,5.06,2.43,5.06,2.43.28-2.43,2.94-2.74,2.94-2.74,3.35-.27,3.56,2,3.56,2.64a1.93,1.93,0,0,1-1.91,2c-1.59.1-1.38-.91-1.38-.91.69.3,1.07,0,1.14-.07a1.47,1.47,0,0,0-1.52-2.3c-1.59.17-2.84,2.77-.62,4.6a3.33,3.33,0,0,0,4.19.27C91,18.55,92.38,19,92.55,19v0c.21,0,1.52-.44,1.73-4.33a3.38,3.38,0,0,0,4.22-.27c2.18-1.83.94-4.43-.62-4.6a1.46,1.46,0,0,0-1.52,2.3c.07.1.42.37,1.11.07,0,0,.21,1-1.38.91a1.93,1.93,0,0,1-1.91-2c0-.68.17-2.91,3.6-2.64,0,0,2.63.3,2.9,2.74,0,0,.73-3.24,5.08-2.43,2.6,1.12.94,3.72.94,3.72a1.7,1.7,0,0,1-2.46.3,2,2,0,0,0,1.42-.95c.38-.81-.69-2-2-1.45a2.44,2.44,0,0,0-.31,4.19c1.83,1.52,4.85-.2,5.19-1,0,0,.94,2.33,4,1.73s3.19-3,2.77-4.13a1.71,1.71,0,0,0-2.94-.47,1.44,1.44,0,0,0,1.35,2.06s-1.63,1.49-2.8-.21-.07-3.38,1.84-3.89,4.26.2,4.43,2.94l-.1,1.49a3.22,3.22,0,0,1,4,1c1.67,2.16.07,4.67-2,4.4,0,0-1.52-.1-1.42-1.49a1.5,1.5,0,0,0,2.15-1c.1-1.76-1.87-1.76-2.42-1.52s-2.18.54-2.08,3.31,4.74,4.19,7.1,2.13V4.32Z"/></g><g class="cls-4"><path class="cls-5" d="M122.38,4.32a3.17,3.17,0,0,1,3.2-3.13H238.4a3.17,3.17,0,0,1,3.2,3.13V20.07c-2.36,2-6.89.51-6.92-2.2s1.49-3.18,2-3.31,2.57-.23,2.39,1.52a1.46,1.46,0,0,1-2.11,1c-.14,1.38,1.38,1.49,1.38,1.49,2.11.27,3.74-2.23,2-4.4a3.23,3.23,0,0,0-4-1l.21-1.49c-.21-2.74-2.6-3.48-4.47-2.94s-3.08,2.19-1.9,3.89a1.85,1.85,0,0,0,2.84.21,1.46,1.46,0,0,1-1.34-2.06,1.71,1.71,0,0,1,2.94.47c.41,1.12.31,3.52-2.8,4.13a3.33,3.33,0,0,1-4-1.73c-.34.78-3.35,2.5-5.19,1a2.43,2.43,0,0,1,.35-4.19c1.28-.51,2.32.64,1.9,1.45a1.83,1.83,0,0,1-1.35.95c1.25,1.15,2.46-.3,2.46-.3s1.63-2.6-1-3.72c-4.33-.81-5.09,2.43-5.09,2.43-.28-2.43-2.91-2.74-2.91-2.74-3.43-.27-3.6,2-3.56,2.64a1.85,1.85,0,0,0,1.87,2c1.59.1,1.45-.91,1.45-.91-.73.3-1.11,0-1.17-.07a1.46,1.46,0,0,1,1.52-2.3c1.59.17,2.8,2.77.62,4.6a3.33,3.33,0,0,1-4.18.27c-.17,3.89-1.59,4.33-1.77,4.33v0c-.13,0-1.55-.44-1.76-4.33a3.28,3.28,0,0,1-4.16-.27c-2.18-1.83-1-4.43.66-4.6a1.46,1.46,0,0,1,1.49,2.3c-.11.1-.42.37-1.15.07,0,0-.2,1,1.39.91a1.86,1.86,0,0,0,1.87-2c.07-.68-.1-2.91-3.53-2.64,0,0-2.62.3-2.9,2.74,0,0-.73-3.24-5.09-2.43-2.63,1.12-1,3.72-1,3.72s1.21,1.45,2.46.3a1.94,1.94,0,0,1-1.39-.95c-.34-.81.66-2,1.94-1.45a2.43,2.43,0,0,1,.35,4.19c-1.87,1.52-4.88-.2-5.19-1,0,0-.94,2.33-4,1.73s-3.22-3-2.77-4.13A1.68,1.68,0,0,1,192,10.7a1.43,1.43,0,0,1-1.35,2.06s1.66,1.49,2.87-.21,0-3.38-1.87-3.89-4.29.2-4.46,2.94l.17,1.49a3.23,3.23,0,0,0-4,1c-1.73,2.16-.1,4.67,2,4.4,0,0,1.56-.1,1.45-1.49a1.53,1.53,0,0,1-2.18-1c-.17-1.76,1.87-1.76,2.42-1.52s2.19.54,2,3.31-4.74,4.19-7.09,2.1v0c-2.39,2.1-7.07.64-7.16-2.1s1.52-3.18,2.11-3.31,2.56-.23,2.42,1.52a1.53,1.53,0,0,1-2.18,1c-.1,1.38,1.45,1.49,1.45,1.49,2.11.27,3.71-2.23,2-4.4a3.23,3.23,0,0,0-4-1l.14-1.49c-.14-2.74-2.53-3.48-4.43-2.94s-3,2.19-1.86,3.89,2.8.21,2.8.21a1.44,1.44,0,0,1-1.32-2.06,1.72,1.72,0,0,1,2.94.47c.42,1.12.28,3.52-2.73,4.13s-4.08-1.73-4.08-1.73c-.32.78-3.32,2.5-5.16,1a2.43,2.43,0,0,1,.31-4.19c1.32-.51,2.32.64,1.93,1.45a1.87,1.87,0,0,1-1.38.95c1.25,1.15,2.5-.3,2.5-.3s1.62-2.6-1-3.72c-4.33-.81-5.06,2.43-5.06,2.43-.28-2.43-2.94-2.74-2.94-2.74-3.35-.27-3.56,2-3.56,2.64a1.93,1.93,0,0,0,1.91,2c1.59.1,1.38-.91,1.38-.91-.69.3-1.07,0-1.14-.07a1.47,1.47,0,0,1,1.52-2.3c1.59.17,2.84,2.77.62,4.6a3.33,3.33,0,0,1-4.19.27c-.17,3.89-1.56,4.33-1.73,4.33v0c-.21,0-1.52-.44-1.73-4.33a3.38,3.38,0,0,1-4.22-.27c-2.18-1.83-.94-4.43.62-4.6a1.46,1.46,0,0,1,1.52,2.3c-.07.1-.42.37-1.11.07,0,0-.21,1,1.38.91a1.93,1.93,0,0,0,1.91-2c0-.68-.17-2.91-3.6-2.64,0,0-2.63.3-2.9,2.74,0,0-.73-3.24-5.08-2.43-2.6,1.12-.94,3.72-.94,3.72a1.7,1.7,0,0,0,2.46.3,2,2,0,0,1-1.42-.95c-.38-.81.69-2,2-1.45a2.44,2.44,0,0,1,.31,4.19c-1.83,1.52-4.85-.2-5.19-1,0,0-.94,2.33-4,1.73s-3.19-3-2.77-4.13a1.71,1.71,0,0,1,2.94-.47A1.44,1.44,0,0,1,131,12.77s1.63,1.49,2.8-.21.07-3.38-1.84-3.89-4.26.2-4.43,2.94l.1,1.49a3.22,3.22,0,0,0-4,1c-1.67,2.16-.07,4.67,2,4.4,0,0,1.52-.1,1.42-1.49a1.5,1.5,0,0,1-2.15-1c-.1-1.76,1.87-1.76,2.42-1.52s2.18.54,2.08,3.31-4.74,4.19-7.1,2.13V4.32Z"/></g><path class="cls-6" d="M3,85.24c0,1.1,2,2,4.45,2h230.3c2.45,0,4.45-.9,4.45-2V3c0-1.1-2-2-4.45-2H7.41C5,1,3,1.9,3,3Z"/><path class="cls-6" d="M3,85.24c0,1.1,2,2,4.45,2h230.3c2.45,0,4.45-.9,4.45-2V3c0-1.1-2-2-4.45-2H7.41C5,1,3,1.9,3,3Z"/><path class="cls-6" d="M3,85.24c0,1.1,2,2,4.45,2h230.3c2.45,0,4.45-.9,4.45-2V3c0-1.1-2-2-4.45-2H7.41C5,1,3,1.9,3,3Z"/><path class="cls-7" d="M3,85.24c0,1.1,2,2,4.45,2h230.3c2.45,0,4.45-.9,4.45-2V3c0-1.1-2-2-4.45-2H7.41C5,1,3,1.9,3,3Z"/><rect class="cls-6" y="0.41" width="245" height="92.5"/></g></g></g></svg>