<?xml version="1.0" encoding="utf-8"?>
<!-- Generator: Adobe Illustrator 20.1.0, SVG Export Plug-In . SVG Version: 6.00 Build 0)  -->
<svg version="1.1" id="Layer_1" xmlns="http://www.w3.org/2000/svg" xmlns:xlink="http://www.w3.org/1999/xlink" x="0px" y="0px"
	 viewBox="0 0 238 90" style="enable-background:new 0 0 238 90;" xml:space="preserve">
<style type="text/css">
	.st0{fill:#DDD4A0;}
	.st1{fill:#FFFFFF;}
</style>
<rect class="st0" width="238" height="90"/>
<path class="st1" d="M119.5,3.1c0-1.7-1.5-3.1-3.2-3.1H2.8C1.1,0-0.4,1.4-0.4,3.1v15.8c2.4,2,6.9,0.5,6.9-2.2S5,13.5,4.4,13.4
	S1.8,13.2,2,14.9c0.2,0.8,0.9,1.3,1.7,1.1c0.1,0,0.3-0.1,0.4-0.1c0.1,1.4-1.4,1.5-1.4,1.5c-2.1,0.3-3.7-2.2-2-4.4
	c0.9-1.3,2.6-1.7,4-1l-0.1-1.5C4.8,7.8,7.2,7,9,7.6s3.1,2.2,1.9,3.9c-0.6,0.8-1.7,1-2.6,0.4c-0.1-0.1-0.2-0.1-0.3-0.2
	c0.8,0,1.5-0.6,1.5-1.4c0-0.3,0-0.5-0.2-0.7C8.9,8.8,7.8,8.7,7,9.2C6.8,9.4,6.6,9.7,6.5,10c-0.4,1.1-0.3,3.5,2.8,4.1
	c1.6,0.5,3.3-0.2,4-1.7c0.3,0.8,3.3,2.5,5.2,1c1.1-0.8,1.4-2.3,0.6-3.4c-0.2-0.3-0.6-0.6-1-0.8c-1.3-0.5-2.3,0.6-1.9,1.4
	c0.3,0.5,0.8,0.9,1.4,0.9c-1.3,1.1-2.5-0.3-2.5-0.3s-1.6-2.6,1-3.7c4.3-0.8,5.1,2.4,5.1,2.4c0.3-2.4,2.9-2.7,2.9-2.7
	c3.4-0.3,3.6,2,3.6,2.6c0.1,1-0.7,1.9-1.7,2l0,0h-0.2C24.3,12,24.5,11,24.5,11c0.7,0.3,1.1,0,1.2-0.1c0.5-0.6,0.4-1.6-0.3-2
	c-0.4-0.3-0.8-0.4-1.2-0.3c-1.6,0.2-2.8,2.8-0.6,4.6c1.2,1.1,2.9,1.2,4.2,0.3c0.2,3.9,1.6,4.3,1.8,4.3l0,0c0.1,0,1.5-0.4,1.8-4.3
	c1.3,0.9,3,0.8,4.2-0.3c2.2-1.8,1-4.4-0.7-4.6c-0.8-0.2-1.6,0.3-1.7,1.1c-0.1,0.4,0,0.9,0.3,1.2c0.1,0.1,0.4,0.4,1.2,0.1
	c0,0,0.2,1-1.4,0.9c-1,0-1.9-0.8-1.9-1.8l0,0c0-0.1,0-0.1,0-0.2C31.3,9.2,31.5,7,35,7.3c1.5,0.2,2.7,1.3,2.9,2.7
	c0,0,0.7-3.2,5.1-2.4c2.6,1.1,1,3.7,1,3.7s-1.2,1.4-2.5,0.3c0.6-0.1,1.1-0.4,1.4-0.9c0.2-0.7-0.3-1.4-1-1.6c-0.3-0.1-0.6,0-0.9,0.1
	c-1.2,0.6-1.7,2-1.2,3.2c0.2,0.4,0.5,0.7,0.8,1c1.9,1.5,4.9-0.2,5.2-1c0.7,1.5,2.4,2.2,4,1.7c3.1-0.6,3.2-3,2.8-4.1
	c-0.3-0.9-1.3-1.3-2.1-1c-0.3,0.1-0.6,0.3-0.8,0.6c-0.3,0.7-0.1,1.6,0.7,1.9c0.2,0.1,0.5,0.2,0.7,0.1c0,0-1.6,1.5-2.8-0.2
	c-1.2-1.7,0-3.4,1.9-3.9s4.3,0.2,4.5,2.9l-0.2,1.5c1.4-0.7,3.1-0.3,4,1c1.7,2.2,0.1,4.7-2,4.4c0,0-1.6-0.1-1.5-1.5
	c0.8,0.4,1.7,0.1,2.1-0.7c0.1-0.1,0.1-0.2,0.1-0.3c0.2-1.8-1.9-1.8-2.4-1.5s-2.2,0.5-2,3.3c0.2,2.8,4.7,4.2,7.1,2.1l0,0
	c2.4,2.1,7.1,0.6,7.2-2.1s-1.5-3.1-2.1-3.2c-0.6-0.1-2.6-0.2-2.4,1.5c0.2,0.8,1,1.3,1.8,1.1c0.1,0,0.2-0.1,0.3-0.1
	c0.1,1.4-1.5,1.5-1.5,1.5c-2.1,0.3-3.7-2.2-2-4.4c0.9-1.3,2.6-1.7,4-1l-0.1-1.5c0-2.7,2.4-3.5,4.3-2.9s3,2.2,1.9,3.9
	s-2.8,0.2-2.8,0.2c0.8,0,1.4-0.6,1.5-1.4c0-0.2,0-0.4-0.1-0.6c-0.6-0.7-1.7-0.8-2.4-0.2c-0.2,0.2-0.4,0.4-0.5,0.7
	c-0.4,1.1-0.3,3.5,2.7,4.1c1.6,0.4,3.3-0.3,4-1.8c0.3,0.8,3.3,2.5,5.2,1c1.1-0.8,1.4-2.3,0.6-3.4c-0.2-0.3-0.6-0.6-0.9-0.8
	c-1.3-0.5-2.3,0.6-1.9,1.4c0.3,0.5,0.8,0.9,1.4,0.9c-1.3,1.1-2.5-0.3-2.5-0.3s-1.6-2.6,1-3.7c4.3-0.8,5.1,2.4,5.1,2.4
	c0.3-2.4,3-2.7,3-2.7c3.3-0.3,3.6,2,3.6,2.6c0,1.1-0.8,2-1.9,2l0,0h-0.1C85,12,85.2,11,85.2,11c0.4,0.2,0.8,0.2,1.1-0.1
	c0.5-0.7,0.3-1.6-0.3-2.1c-0.3-0.3-0.8-0.3-1.2-0.2c-1.6,0.2-2.8,2.8-0.6,4.6c1.2,1.1,2.9,1.2,4.2,0.3c0.2,3.9,1.6,4.3,1.7,4.3l0,0
	c0.2,0,1.5-0.4,1.7-4.3c1.3,0.9,3.1,0.8,4.2-0.3c2.2-1.8,0.9-4.4-0.6-4.6c-1.3-0.2-2.1,0.3-2.3,1.1c-0.1,0.4,0,0.9,0.3,1.2
	c0.1,0.1,0.4,0.4,1.1,0.1c0,0,0.2,1-1.4,0.9c-1.1,0-1.9-0.9-1.9-1.9l0,0V9.9c0-0.7,0.2-2.9,3.6-2.6c0,0,2.6,0.3,2.9,2.7
	c0,0,0.7-3.2,5.1-2.4c2.6,1.1,0.9,3.7,0.9,3.7c-0.6,0.8-1.6,0.9-2.4,0.4l0,0l-0.1-0.1c0.6-0.1,1.1-0.4,1.4-0.9c0.4-0.8-0.7-2-2-1.4
	c-1.2,0.6-1.7,2.1-1.1,3.3c0.2,0.4,0.5,0.7,0.8,0.9c1.8,1.5,4.8-0.2,5.2-1c0.7,1.5,2.4,2.2,4,1.7c3.1-0.6,3.2-3,2.8-4.1
	c-0.3-0.9-1.3-1.3-2.2-1c-0.3,0.1-0.5,0.3-0.7,0.5c-0.3,0.7,0,1.6,0.7,1.9c0.2,0.1,0.4,0.1,0.7,0.1c0,0-1.6,1.5-2.8-0.2
	c-1.2-1.7-0.1-3.4,1.8-3.9s4.3,0.2,4.4,2.9l-0.1,1.5c1.4-0.7,3.1-0.3,4,1c1.7,2.2,0.1,4.7-2,4.4c0,0-1.5-0.1-1.4-1.5
	c0.7,0.4,1.6,0.1,2-0.6c0.1-0.1,0.1-0.2,0.1-0.4c0.1-1.8-1.9-1.8-2.4-1.5c-0.5,0.3-2.2,0.5-2.1,3.3c0.1,2.8,4.7,4.2,7.1,2.1
	L119.5,3.1L119.5,3.1z"/>
<path class="st1" d="M238.9,3.1c0-1.7-1.5-3.1-3.2-3.1H122.2c-1.7,0-3.2,1.4-3.2,3.1v15.8c2.4,2,6.9,0.5,6.9-2.2s-1.5-3.2-2.1-3.3
	c-0.6-0.1-2.6-0.2-2.4,1.5c0.2,0.8,0.9,1.3,1.7,1.1c0.1,0,0.3-0.1,0.4-0.1c0.1,1.4-1.4,1.5-1.4,1.5c-2.1,0.3-3.7-2.2-2-4.4
	c0.9-1.3,2.6-1.7,4-1l-0.1-1.5c0.2-2.7,2.6-3.5,4.4-2.9s3.1,2.2,1.9,3.9c-0.6,0.8-1.7,1-2.6,0.4c-0.1-0.1-0.2-0.1-0.3-0.2
	c0.8,0,1.5-0.6,1.5-1.4c0-0.3,0-0.5-0.2-0.7c-0.4-0.8-1.5-0.9-2.3-0.4c-0.2,0.2-0.4,0.5-0.5,0.8c-0.4,1.1-0.3,3.5,2.8,4.1
	c1.6,0.5,3.3-0.2,4-1.7c0.3,0.8,3.3,2.5,5.2,1c1.1-0.8,1.4-2.3,0.6-3.4c-0.2-0.3-0.6-0.6-1-0.8c-1.3-0.5-2.3,0.6-1.9,1.4
	c0.3,0.5,0.8,0.9,1.4,0.9c-1.3,1.1-2.5-0.3-2.5-0.3s-1.6-2.6,1-3.7c4.3-0.8,5.1,2.4,5.1,2.4c0.3-2.4,2.9-2.7,2.9-2.7
	c3.4-0.3,3.6,2,3.6,2.6c0.1,1-0.7,1.9-1.7,2l0,0h-0.2c-1.6,0.2-1.4-0.8-1.4-0.8c0.7,0.3,1.1,0,1.2-0.1c0.5-0.6,0.4-1.6-0.3-2
	c-0.4-0.3-0.8-0.4-1.2-0.3c-1.6,0.2-2.8,2.8-0.6,4.6c1.2,1.1,2.9,1.2,4.2,0.3c0.2,3.9,1.6,4.3,1.8,4.3l0,0c0.1,0,1.5-0.4,1.8-4.3
	c1.3,0.9,3,0.8,4.2-0.3c2.2-1.8,1-4.4-0.7-4.6c-0.8-0.2-1.6,0.3-1.7,1.1c-0.1,0.4,0,0.9,0.3,1.2c0.1,0.1,0.4,0.4,1.2,0.1
	c0,0,0.2,1-1.4,0.9c-1,0-1.9-0.8-1.9-1.8l0,0c0-0.1,0-0.1,0-0.2c-0.1-0.7,0.1-2.9,3.5-2.6c1.5,0.2,2.7,1.3,2.9,2.7
	c0,0,0.7-3.2,5.1-2.4c2.6,1.1,1,3.7,1,3.7s-1.2,1.4-2.5,0.3c0.6-0.1,1.1-0.4,1.4-0.9c0.2-0.7-0.3-1.4-1-1.6c-0.3-0.1-0.6,0-0.9,0.1
	c-1.2,0.6-1.7,2-1.2,3.2c0.2,0.4,0.5,0.7,0.8,1c1.9,1.5,4.9-0.2,5.2-1c0.7,1.5,2.4,2.2,4,1.7c3.1-0.6,3.2-3,2.8-4.1
	c-0.3-0.9-1.3-1.3-2.1-1c-0.3,0.1-0.6,0.3-0.8,0.6c-0.3,0.7-0.1,1.6,0.7,1.9c0.2,0.1,0.5,0.2,0.7,0.1c0,0-1.6,1.5-2.8-0.2
	s0-3.4,1.9-3.9s4.3,0.2,4.5,2.9l-0.2,1.5c1.4-0.7,3.1-0.3,4,1c1.7,2.2,0.1,4.7-2,4.4c0,0-1.6-0.1-1.5-1.5c0.8,0.4,1.7,0.1,2.1-0.7
	c0.1-0.1,0.1-0.2,0.1-0.3c0.2-1.8-1.9-1.8-2.4-1.5s-2.2,0.5-2,3.3s4.7,4.2,7.1,2.1l0,0c2.4,2.1,7.1,0.6,7.2-2.1s-1.5-3.1-2.1-3.2
	c-0.6-0.1-2.6-0.2-2.4,1.5c0.2,0.8,1,1.3,1.8,1.1c0.1,0,0.2-0.1,0.3-0.1c0.1,1.4-1.5,1.5-1.5,1.5c-2.1,0.3-3.7-2.2-2-4.4
	c0.9-1.3,2.6-1.7,4-1l-0.1-1.5c0-2.7,2.4-3.5,4.3-2.9s3,2.2,1.9,3.9c-1.1,1.7-2.8,0.2-2.8,0.2c0.8,0,1.4-0.6,1.5-1.4
	c0-0.2,0-0.4-0.1-0.6c-0.6-0.7-1.7-0.8-2.4-0.2c-0.2,0.2-0.4,0.4-0.5,0.7c-0.4,1.1-0.3,3.5,2.7,4.1c1.6,0.4,3.3-0.3,4-1.8
	c0.3,0.8,3.3,2.5,5.2,1c1.1-0.8,1.4-2.3,0.6-3.4c-0.2-0.3-0.6-0.6-0.9-0.8c-1.3-0.5-2.3,0.6-1.9,1.4c0.3,0.5,0.8,0.9,1.4,0.9
	c-1.3,1.1-2.5-0.3-2.5-0.3s-1.6-2.6,1-3.7c4.3-0.8,5.1,2.4,5.1,2.4c0.3-2.4,3-2.7,3-2.7c3.3-0.3,3.6,2,3.6,2.6c0,1.1-0.8,2-1.9,2
	l0,0H206c-1.6,0.1-1.4-0.9-1.4-0.9c0.4,0.2,0.8,0.2,1.1-0.1c0.5-0.7,0.3-1.6-0.3-2.1c-0.3-0.3-0.8-0.3-1.2-0.2
	c-1.6,0.2-2.8,2.8-0.6,4.6c1.2,1.1,2.9,1.2,4.2,0.3c0.2,3.9,1.6,4.3,1.7,4.3l0,0c0.2,0,1.5-0.4,1.7-4.3c1.3,0.9,3.1,0.8,4.2-0.3
	c2.2-1.8,0.9-4.4-0.6-4.6c-1.3-0.2-2.1,0.3-2.3,1.1c-0.1,0.4,0,0.9,0.3,1.2c0.1,0.1,0.4,0.4,1.1,0.1c0,0,0.2,1-1.4,0.9
	c-1.1,0-1.9-0.9-1.9-1.9l0,0V9.9c0-0.7,0.2-2.9,3.6-2.6c0,0,2.6,0.3,2.9,2.7c0,0,0.7-3.2,5.1-2.4c2.6,1.1,0.9,3.7,0.9,3.7
	c-0.6,0.8-1.6,0.9-2.4,0.4l0,0l-0.1-0.1c0.6-0.1,1.1-0.4,1.4-0.9c0.4-0.8-0.7-2-2-1.4c-1.2,0.6-1.7,2.1-1.1,3.3
	c0.2,0.4,0.5,0.7,0.8,0.9c1.8,1.5,4.8-0.2,5.2-1c0.7,1.5,2.4,2.2,4,1.7c3.1-0.6,3.2-3,2.8-4.1c-0.3-0.9-1.3-1.3-2.2-1
	c-0.3,0.1-0.5,0.3-0.7,0.5c-0.3,0.7,0,1.6,0.7,1.9c0.2,0.1,0.4,0.1,0.7,0.1c0,0-1.6,1.5-2.8-0.2s-0.1-3.4,1.8-3.9s4.3,0.2,4.4,2.9
	l-0.1,1.5c1.4-0.7,3.1-0.3,4,1c1.7,2.2,0.1,4.7-2,4.4c0,0-1.5-0.1-1.4-1.5c0.7,0.4,1.6,0.1,2-0.6c0.1-0.1,0.1-0.2,0.1-0.4
	c0.1-1.8-1.9-1.8-2.4-1.5c-0.5,0.3-2.2,0.5-2.1,3.3s4.7,4.2,7.1,2.1L238.9,3.1L238.9,3.1z"/>
<rect x="-0.4" class="st1" width="239.3" height="3.1"/>
</svg>
